<?xml version="1.0" encoding="utf-8"?>
<!-- Generator: Adobe Illustrator 16.2.0, SVG Export Plug-In . SVG Version: 6.00 Build 0)  -->
<!DOCTYPE svg PUBLIC "-//W3C//DTD SVG 1.1//EN" "http://www.w3.org/Graphics/SVG/1.1/DTD/svg11.dtd">
<svg version="1.1" id="menu_bar" xmlns="http://www.w3.org/2000/svg" xmlns:xlink="http://www.w3.org/1999/xlink" x="0px" y="0px"
	 width="300px" height="4251.969px" viewBox="0 0 300 4251.969" enable-background="new 0 0 300 4251.969" xml:space="preserve">
<g id="s5">
	<path fill="#ED1F24" d="M213.267,2083.269c-0.351-0.352-20.435-20.435-20.656-20.655c-0.188-0.188-0.239-0.24-0.44-0.441
		c-17.343,17.343-103.227,103.149-117.438,117.36c0,0,17.248,17.248,21.817,21.818c13.024-13.023,111.86-111.859,117.4-117.399
		C213.623,2083.625,213.568,2083.57,213.267,2083.269z"/>
	<path display="none" fill="#ED1F24" d="M227.354,2117.69c0-0.266,0-0.339,0-0.623c-24.525,0-145.93-0.056-166.027-0.056
		c0,0,0,24.391,0,30.856c18.417,0,158.193,0,166.027,0c0-0.461,0-0.539,0-0.965C227.354,2146.405,227.354,2118.003,227.354,2117.69z
		"/>
	<path fill="#ED1F24" d="M213.469,2179.52c0.188-0.189,0.24-0.238,0.441-0.441c-17.343-17.342-103.148-103.226-117.36-117.437
		c0,0-17.248,17.247-21.818,21.818c13.023,13.022,111.86,111.861,117.399,117.4c0.326-0.326,0.381-0.381,0.682-0.684
		C193.164,2199.825,213.248,2179.741,213.469,2179.52z"/>
</g>
<g id="s4" display="none">
	<path display="inline" fill="#ED1F24" d="M227.354,2208.997c0-0.496,0-28.898,0-29.211c0-0.266,0-0.34,0-0.625
		c-24.525,0-145.93-0.053-166.027-0.053c0,0,0,24.391,0,30.854c18.417,0,158.193,0,166.027,0
		C227.354,2209.502,227.354,2209.424,227.354,2208.997z"/>
	<path display="inline" fill="#ED1F24" d="M227.354,2118.182c0-0.267,0-0.34,0-0.623c-24.525,0-145.93-0.057-166.027-0.057
		c0,0,0,24.393,0,30.856c18.417,0,158.193,0,166.027,0c0-0.461,0-0.539,0-0.965C227.354,2146.897,227.354,2118.495,227.354,2118.182
		z"/>
	<path display="inline" fill="#ED1F24" d="M227.354,2056.579c0-0.267,0-0.339,0-0.624c-24.525,0-145.93-0.056-166.027-0.056
		c0,0,0,24.393,0,30.855c18.417,0,158.193,0,166.027,0c0-0.46,0-0.539,0-0.965C227.354,2085.294,227.354,2056.892,227.354,2056.579z
		"/>
</g>
<g id="s5_x5F_new" opacity="0.5">
	<path fill="#ED1F24" d="M250.458,2058.028c-0.549-0.551-31.93-31.931-32.273-32.275c-0.296-0.295-0.376-0.375-0.689-0.689
		c-26.631,26.631-158.516,158.392-180.34,180.216c0,0,26.95,26.95,34.092,34.092c19.998-20,171.771-171.773,180.277-180.278
		C251.015,2058.584,250.929,2058.499,250.458,2058.028z"/>
	<path display="none" fill="#ED1F24" d="M271.815,2109.887c0-0.417,0-0.53,0-0.975c-37.661,0-224.087-0.087-254.951-0.087
		c0,0,0,38.113,0,48.212c28.283,0,242.923,0,254.951,0c0-0.719,0-0.842,0-1.508C271.815,2154.752,271.815,2110.375,271.815,2109.887
		z"/>
	<path fill="#ED1F24" d="M250.774,2204.52c0.295-0.295,0.375-0.375,0.688-0.688c-26.631-26.631-158.393-158.515-180.217-180.339
		c0,0-26.949,26.949-34.09,34.09c19.999,20,171.772,171.773,180.277,180.279c0.509-0.51,0.596-0.596,1.066-1.066
		C219.049,2236.247,250.43,2204.866,250.774,2204.52z"/>
</g>
<g id="s4_x5F_new_1_" display="none">
	<path display="inline" fill="#ED1F24" d="M271.815,2251.786c0-0.777,0-45.156,0-45.643c0-0.418,0-0.531,0-0.975
		c-37.661,0-224.087-0.088-254.951-0.088c0,0,0,38.113,0,48.213c28.283,0,242.923,0,254.951,0
		C271.815,2252.573,271.815,2252.452,271.815,2251.786z"/>
	<path display="inline" fill="#ED1F24" d="M271.815,2109.887c0-0.417,0-0.53,0-0.975c-37.661,0-224.087-0.087-254.951-0.087
		c0,0,0,38.113,0,48.212c28.283,0,242.923,0,254.951,0c0-0.719,0-0.842,0-1.508C271.815,2154.752,271.815,2110.375,271.815,2109.887
		z"/>
	<path display="inline" fill="#ED1F24" d="M271.815,2013.631c0-0.417,0-0.53,0-0.974c-37.661,0-224.087-0.086-254.951-0.086
		c0,0,0,38.112,0,48.211c28.283,0,242.923,0,254.951,0c0-0.719,0-0.841,0-1.507C271.815,2058.498,271.815,2014.12,271.815,2013.631z
		"/>
</g>
<g id="s3_1_" display="none">
	<path display="inline" fill="#ED1F24" d="M263.193,2005.457c-0.777,0-45.155,0-45.643,0c-0.418,0-0.531,0-0.975,0
		c0,37.662-0.087,224.087-0.087,254.951c0,0,38.113,0,48.212,0c0-28.283,0-242.923,0-254.951
		C263.98,2005.457,263.859,2005.457,263.193,2005.457z"/>
	<path display="inline" fill="#ED1F24" d="M121.295,2005.457c-0.417,0-0.53,0-0.975,0c0,37.662-0.087,224.087-0.087,254.951
		c0,0,38.113,0,48.212,0c0-28.283,0-242.923,0-254.951c-0.719,0-0.841,0-1.507,0
		C166.161,2005.457,121.783,2005.457,121.295,2005.457z"/>
	<path display="inline" fill="#ED1F24" d="M25.04,2005.457c-0.417,0-0.53,0-0.974,0c0,37.662-0.086,224.087-0.086,254.951
		c0,0,38.112,0,48.211,0c0-28.283,0-242.923,0-254.951c-0.719,0-0.841,0-1.507,0C69.906,2005.457,25.528,2005.457,25.04,2005.457z"
		/>
</g>
<g id="s2">
	<path fill="#ED1F24" d="M263.09,1999.648c-15.864,9.157-45.056,26.014-45.563,26.307c-0.344,0.198-0.481,0.278-0.95,0.549
		c0,31.443,0,214.874,0,240.641c0,0,39.113-22.594,48.125-27.785c0-23.613,0-230.599,0-240.642
		C264.176,1999.021,263.893,1999.185,263.09,1999.648z"/>
	<path fill="#ED1F24" d="M121.271,2025.955c-0.344,0.198-0.481,0.278-0.95,0.549c0,31.443,0,214.874,0,240.641
		c0,0,39.113-22.594,48.125-27.785c0-23.613,0-230.599,0-240.642c-0.524,0.303-0.809,0.467-1.611,0.93
		C150.97,2008.806,121.779,2025.662,121.271,2025.955z"/>
	<path fill="#ED1F24" d="M25.015,2025.955c-0.343,0.198-0.48,0.278-0.949,0.549c0,31.443,0,214.874,0,240.641
		c0,0,39.113-22.594,48.125-27.785c0-23.613,0-230.599,0-240.642c-0.525,0.303-0.808,0.467-1.611,0.93
		C54.714,2008.806,25.523,2025.662,25.015,2025.955z"/>
</g>
<g id="s1">
	<path fill="#ED1F24" d="M144.523,41.719c16.406,9.469,25.07,14.469,36.133,20.859c0,47.211,0,322.625,0,361.313   c0,0,58.727-33.922,72.258-41.719c0-35.453,0-346.234,0-361.313C240.531,13.711,231.672,8.594,216.789,0   C192.969,13.75,165.758,29.461,144.523,41.719z">
<animate  fill="freeze" additive="replace" accumulate="none" values="M144.523,41.719c16.406,9.469,25.07,14.469,36.133,20.859c0,47.211,0,322.625,0,361.313   c0,0,58.727-33.922,72.258-41.719c0-35.453,0-346.234,0-361.313C240.531,13.711,231.672,8.594,216.789,0   C192.969,13.75,165.758,29.461,144.523,41.719z;    M144.523,41.719c16.406,9.469,25.07,14.469,36.133,20.859c0,47.211,0,322.625,0,361.313   c0,0,58.727-33.922,72.258-41.719c0-35.453,0-346.234,0-361.313C240.531,13.711,231.672,8.594,216.789,0   C192.969,13.75,165.758,29.461,144.523,41.719z;      M182.083,61.755c-0.516,0.297-0.723,0.417-1.427,0.823c0,47.211,0,322.625,0,361.313   c0,0,58.727-33.922,72.258-41.719c0-35.453,0-346.234,0-361.313c-0.788,0.455-1.214,0.7-2.419,1.396   C226.675,36.006,182.846,61.314,182.083,61.755z;      M182.119,62.578c-0.626,0-0.796,0-1.463,0c0,47.211-0.13,280.906-0.13,319.594c0,0,57.225,0,72.388,0   c0-35.453,0-304.516,0-319.594c-1.08,0-1.263,0-2.263,0C249.484,62.578,182.853,62.578,182.119,62.578z;      M341.362,200.229c0-0.4,0-0.51,0-0.936c-36.824,0-219.107-0.084-249.283-0.084c0,0,0,36.624,0,46.328   c27.653,0,237.521,0,249.283,0c0-0.691,0-0.808,0-1.447C341.362,243.344,341.362,200.699,341.362,200.229z;    M341.362,200.229c0-0.4,0-0.51,0-0.936c-36.824,0-219.107-0.084-249.283-0.084c0,0,0,36.624,0,46.328   c27.653,0,237.521,0,249.283,0c0-0.691,0-0.808,0-1.447C341.362,243.344,341.362,200.699,341.362,200.229z;      M182.119,62.578c-0.626,0-0.796,0-1.463,0c0,47.211-0.13,280.906-0.13,319.594c0,0,57.225,0,72.388,0   c0-35.453,0-304.516,0-319.594c-1.08,0-1.263,0-2.263,0C249.484,62.578,182.853,62.578,182.119,62.578z;      M182.083,61.755c-0.516,0.297-0.723,0.417-1.427,0.823c0,47.211,0,322.625,0,361.313   c0,0,58.727-33.922,72.258-41.719c0-35.453,0-346.234,0-361.313c-0.788,0.455-1.214,0.7-2.419,1.396   C226.675,36.006,182.846,61.314,182.083,61.755z;      M144.523,41.719c16.406,9.469,25.07,14.469,36.133,20.859c0,47.211,0,322.625,0,361.313   c0,0,58.727-33.922,72.258-41.719c0-35.453,0-346.234,0-361.313C240.531,13.711,231.672,8.594,216.789,0   C192.969,13.75,165.758,29.461,144.523,41.719z;" keyTimes="0;0.33;0.355;0.38;0.54;0.79;0.95;0.975;1" keySplines="0,0,1,1;     0,0,1,1;     0,0,1,1;     .19,1.08,.63,1.15;     .19,1.08,.63,1.15;     .19,1.08,.63,1.15;     0,0,1,1;     0,0,1,1" calcMode="spline" repeatCount="indefinite" begin="0s;hover_to_normal.end" restart="always" end="" dur="3000ms" attributeName="d">
			</animate>
		<set  fill="freeze" to="transparent" begin="menu_bar.click" restart="always" attributeName="fill"></set>
		<set  fill="remove" to="#ED1F24" begin="close_bar.click" restart="always" attributeName="fill"></set>
		
			<animate  fill="freeze" to="     M341.362,200.229c0-0.4,0-0.51,0-0.936c-36.824,0-219.107-0.084-249.283-0.084c0,0,0,36.624,0,46.328   c27.653,0,237.521,0,249.283,0c0-0.691,0-0.808,0-1.447C341.362,243.344,341.362,200.699,341.362,200.229z" additive="replace" accumulate="none" keyTimes="0;1" keySplines=".19,1.08,.63,1.15" calcMode="spline" repeatCount="1" begin="menu_bar.mouseover" restart="always" end="" dur="400ms" attributeName="d">
			</animate>
		
			<animate  fill="freeze" to="     M144.523,41.719c16.406,9.469,25.07,14.469,36.133,20.859c0,47.211,0,322.625,0,361.313   c0,0,58.727-33.922,72.258-41.719c0-35.453,0-346.234,0-361.313C240.531,13.711,231.672,8.594,216.789,0   C192.969,13.75,165.758,29.461,144.523,41.719z" additive="replace" accumulate="none" keySplines=".19,1.08,.63,1.15" calcMode="spline" repeatCount="1" begin="menu_bar.mouseout" restart="always" end="" dur="200ms" attributeName="d">
			</animate>
		
			<animate  fill="freeze" to="     M341.362,200.229c0-0.4,0-0.51,0-0.936c-36.824,0-219.107-0.084-249.283-0.084c0,0,0,36.624,0,46.328   c27.653,0,237.521,0,249.283,0c0-0.691,0-0.808,0-1.447C341.362,243.344,341.362,200.699,341.362,200.229z" additive="replace" accumulate="none" keyTimes="0;1" keySplines=".19,1.08,.63,1.15" calcMode="spline" repeatCount="1" begin="close_bar.click" restart="always" end="" dur="400ms" attributeName="d">
			</animate>
	</path>
	<path fill="#ED1F24" d="M0,41.719c16.406,9.469,25.07,14.469,36.133,20.859c0,47.211,0,322.625,0,361.313     c0,0,58.727-33.922,72.258-41.719c0-35.453,0-346.234,0-361.313     C96.008,13.711,87.148,8.594,72.266,0C48.445,13.75,21.234,29.461,0,41.719z">
<animate  fill="freeze" additive="replace" accumulate="none" values="M0,41.719c16.406,9.469,25.07,14.469,36.133,20.859c0,47.211,0,322.625,0,361.313     c0,0,58.727-33.922,72.258-41.719c0-35.453,0-346.234,0-361.313     C96.008,13.711,87.148,8.594,72.266,0C48.445,13.75,21.234,29.461,0,41.719z;      M0,41.719c16.406,9.469,25.07,14.469,36.133,20.859c0,47.211,0,322.625,0,361.313     c0,0,58.727-33.922,72.258-41.719c0-35.453,0-346.234,0-361.313     C96.008,13.711,87.148,8.594,72.266,0C48.445,13.75,21.234,29.461,0,41.719z;      M37.559,61.755c-0.515,0.297-0.722,0.417-1.426,0.823c0,47.211,0,322.625,0,361.313   c0,0,58.727-33.922,72.258-41.719c0-35.453,0-346.234,0-361.313c-0.788,0.455-1.213,0.7-2.419,1.396   C82.151,36.006,38.322,61.314,37.559,61.755z;      M37.596,62.578c-0.625,0-0.796,0-1.463,0c0,47.211-0.129,280.906-0.129,319.594c0,0,57.224,0,72.387,0   c0-35.453,0-304.516,0-319.594c-1.08,0-1.263,0-2.263,0C104.961,62.578,38.33,62.578,37.596,62.578z;      M341.362,107.735c0-0.4,0-0.509,0-0.937c-36.824,0-219.107-0.083-249.283-0.083c0,0,0,36.624,0,46.328   c27.653,0,237.521,0,249.283,0c0-0.691,0-0.809,0-1.449C341.362,150.849,341.362,108.205,341.362,107.735z;    M341.362,107.735c0-0.4,0-0.509,0-0.937c-36.824,0-219.107-0.083-249.283-0.083c0,0,0,36.624,0,46.328   c27.653,0,237.521,0,249.283,0c0-0.691,0-0.809,0-1.449C341.362,150.849,341.362,108.205,341.362,107.735z;      M37.596,62.578c-0.625,0-0.796,0-1.463,0c0,47.211-0.129,280.906-0.129,319.594c0,0,57.224,0,72.387,0   c0-35.453,0-304.516,0-319.594c-1.08,0-1.263,0-2.263,0C104.961,62.578,38.33,62.578,37.596,62.578z;      M37.559,61.755c-0.515,0.297-0.722,0.417-1.426,0.823c0,47.211,0,322.625,0,361.313   c0,0,58.727-33.922,72.258-41.719c0-35.453,0-346.234,0-361.313c-0.788,0.455-1.213,0.7-2.419,1.396   C82.151,36.006,38.322,61.314,37.559,61.755z;     M0,41.719c16.406,9.469,25.07,14.469,36.133,20.859c0,47.211,0,322.625,0,361.313   c0,0,58.727-33.922,72.258-41.719c0-35.453,0-346.234,0-361.313   C96.008,13.711,87.148,8.594,72.266,0C48.445,13.75,21.234,29.461,0,41.719z;" keyTimes="0;0.33;0.355;0.38;0.54;0.79;0.95;0.975;1" keySplines="0,0,1,1;     0,0,1,1;     0,0,1,1;     .19,1.08,.63,1.15;     .19,1.08,.63,1.15;     .19,1.08,.63,1.15;     0,0,1,1;     0,0,1,1" calcMode="spline" repeatCount="indefinite" begin="0s;hover_to_normal.end" restart="always" end="" dur="3000ms" attributeName="d">
			</animate>
		
			<animate  fill="freeze" to="   M320.515,292.326c0.283-0.283,0.36-0.359,0.662-0.662c-26.039-26.039-154.873-154.99-176.211-176.328   c0,0-25.897,25.896-32.759,32.76c19.554,19.553,167.953,167.953,176.27,176.27c0.489-0.489,0.571-0.572,1.024-1.025   C290.028,322.813,320.183,292.658,320.515,292.326z" additive="replace" accumulate="none" keyTimes="0;1" keySplines=".19,1.08,.63,1.15" calcMode="spline" begin="menu_bar.click" restart="always" end="" dur="300ms" attributeName="d">
			</animate>
		
			<animate  fill="freeze" to="     M341.362,107.735c0-0.4,0-0.509,0-0.937c-36.824,0-219.107-0.083-249.283-0.083c0,0,0,36.624,0,46.328   c27.653,0,237.521,0,249.283,0c0-0.691,0-0.809,0-1.449C341.362,150.849,341.362,108.205,341.362,107.735z" additive="replace" accumulate="none" keyTimes="0;1" keySplines=".19,1.08,.63,1.15" calcMode="spline" repeatCount="1" begin="menu_bar.mouseover" restart="always" end="" dur="400ms" attributeName="d">
			</animate>
		
			<animate  fill="freeze" to="     M0,41.719c16.406,9.469,25.07,14.469,36.133,20.859c0,47.211,0,322.625,0,361.313   c0,0,58.727-33.922,72.258-41.719c0-35.453,0-346.234,0-361.313   C96.008,13.711,87.148,8.594,72.266,0C48.445,13.75,21.234,29.461,0,41.719z" additive="replace" accumulate="none" keySplines=".19,1.08,.63,1.15" calcMode="spline" repeatCount="1" begin="menu_bar.mouseout" restart="always" end="" dur="200ms" attributeName="d">
			</animate>
		
			<animate  fill="freeze" to="     M341.362,107.735c0-0.4,0-0.509,0-0.937c-36.824,0-219.107-0.083-249.283-0.083c0,0,0,36.624,0,46.328   c27.653,0,237.521,0,249.283,0c0-0.691,0-0.809,0-1.449C341.362,150.849,341.362,108.205,341.362,107.735z" additive="replace" accumulate="none" keyTimes="0;1" keySplines=".19,1.08,.63,1.15" calcMode="spline" repeatCount="1" begin="close_bar.click" restart="always" end="" dur="400ms" attributeName="d">
			</animate>
	</path>
	<path fill="#ED1F24" d="M0,1984.825"/>
</g>
</svg>
