<svg version="1.1" id="menu_bar" xmlns="http://www.w3.org/2000/svg" xmlns:xlink="http://www.w3.org/1999/xlink" x="0px" y="0px"
	 width="397.5px" height="423.9px" viewBox="0 0 397.5 423.9" style="enable-background:new 0 0 397.5 423.9;" xml:space="preserve"
	>
<path fill="#fff" id="s1" class="st1" d="M361.3,0c-23.8,13.8-51,29.5-72.3,41.7c16.4,9.5,25.1,14.5,36.1,20.9c0,47.2,0,322.6,0,361.3
	c0,0,58.7-33.9,72.3-41.7c0-35.5,0-346.2,0-361.3C385,13.7,376.2,8.6,361.3,0z M144.5,41.7c16.4,9.5,25.1,14.5,36.1,20.9
	c0,47.2,0,322.6,0,361.3c0,0,58.7-33.9,72.3-41.7c0-35.5,0-346.2,0-361.3C240.5,13.7,231.7,8.6,216.8,0
	C193,13.8,165.7,29.5,144.5,41.7z M0,41.7c16.4,9.5,25.1,14.5,36.1,20.9c0,47.2,0,322.6,0,361.3c0,0,58.7-33.9,72.3-41.7
	c0-35.5,0-346.2,0-361.3C96,13.7,87.1,8.6,72.2,0C48.4,13.8,21.2,29.5,0,41.7z"/>
</svg>
